<svg id="Capa_1" enable-background="new 0 0 340.022 340.022" height="512" viewBox="0 0 340.022 340.022" width="512" xmlns="http://www.w3.org/2000/svg"><g><g><path d="m277.657 170.205c-14.474-29.682-23.379-61.768-26.272-94.664-3.963-45.508-44.068-79.187-89.576-75.224-40.467 3.524-72.386 35.911-75.32 76.424-.26 3.544-.772 10.632-1.032 14.176-4.916 67.808-39.2 83.2-33.916 141.244 6.161 65.437 64.203 113.489 129.64 107.328 61.134-5.756 107.853-57.08 107.852-118.484.042-17.569-3.844-34.926-11.376-50.8zm-114.544 155.6c-51.346-3.582-92.607-43.703-97.628-94.928-4.8-52.368 28.912-69.716 33.94-138.956.256-3.544.772-10.632 1.028-14.176 2.735-37.85 35.636-66.316 73.486-63.581 33.669 2.433 60.584 28.962 63.502 62.593 3.04 34.554 12.382 68.259 27.564 99.448 24.742 52.464 2.268 115.052-50.196 139.793-16.121 7.603-33.911 10.978-51.696 9.807z"/><path d="m170.033 145.005c-38.048 0-69 34.092-69 76s30.952 76 69 76 69-34.092 69-76-30.952-76-69-76zm0 138c-30.328 0-55-27.812-55-62s24.672-62 55-62 55 27.812 55 62-24.672 62-55 62z"/><path d="m170.033 169.005c-24.8 0-45 23.328-45 52 0 3.866 3.134 7 7 7s7-3.134 7-7c0-20.952 13.908-38 31-38 3.866 0 7-3.134 7-7s-3.134-7-7-7z"/></g></g></svg>